<svg width="253" height="36" viewBox="0 0 253 36" fill="none" xmlns="http://www.w3.org/2000/svg">
<path d="M43.95 28V13.12H47.34L47.64 15.64C48.1 14.76 48.76 14.06 49.62 13.54C50.5 13.02 51.53 12.76 52.71 12.76C54.55 12.76 55.98 13.34 57 14.5C58.02 15.66 58.53 17.36 58.53 19.6V28H54.69V19.96C54.69 18.68 54.43 17.7 53.91 17.02C53.39 16.34 52.58 16 51.48 16C50.4 16 49.51 16.38 48.81 17.14C48.13 17.9 47.79 18.96 47.79 20.32V28H43.95ZM70.782 28.36C68.922 28.36 67.482 27.78 66.462 26.62C65.462 25.46 64.962 23.76 64.962 21.52V13.12H68.772V21.16C68.772 22.44 69.032 23.42 69.552 24.1C70.072 24.78 70.892 25.12 72.012 25.12C73.072 25.12 73.942 24.74 74.622 23.98C75.322 23.22 75.672 22.16 75.672 20.8V13.12H79.512V28H76.122L75.822 25.48C75.362 26.36 74.692 27.06 73.812 27.58C72.952 28.1 71.942 28.36 70.782 28.36ZM85.0439 28L90.4439 20.56L85.0439 13.12H89.1539L92.9339 18.4L96.6839 13.12H100.824L95.3939 20.56L100.824 28H96.6839L92.9339 22.72L89.1539 28H85.0439ZM112.9 28C111.34 28 110.09 27.62 109.15 26.86C108.21 26.1 107.74 24.75 107.74 22.81V16.33H105.19V13.12H107.74L108.19 9.13H111.58V13.12H115.6V16.33H111.58V22.84C111.58 23.56 111.73 24.06 112.03 24.34C112.35 24.6 112.89 24.73 113.65 24.73H115.51V28H112.9ZM120.637 31.33L128.137 4.69H131.887L124.357 31.33H120.637Z" fill="#003C3C"/>
<path d="M144.814 28.36C143.294 28.36 141.954 28.03 140.794 27.37C139.634 26.71 138.714 25.79 138.034 24.61C137.374 23.43 137.044 22.08 137.044 20.56C137.044 19.04 137.374 17.69 138.034 16.51C138.714 15.33 139.634 14.41 140.794 13.75C141.954 13.09 143.294 12.76 144.814 12.76C146.714 12.76 148.314 13.26 149.614 14.26C150.914 15.24 151.744 16.6 152.104 18.34H148.054C147.854 17.62 147.454 17.06 146.854 16.66C146.274 16.24 145.584 16.03 144.784 16.03C143.724 16.03 142.824 16.43 142.084 17.23C141.344 18.03 140.974 19.14 140.974 20.56C140.974 21.98 141.344 23.09 142.084 23.89C142.824 24.69 143.724 25.09 144.784 25.09C145.584 25.09 146.274 24.89 146.854 24.49C147.454 24.09 147.854 23.52 148.054 22.78H152.104C151.744 24.46 150.914 25.81 149.614 26.83C148.314 27.85 146.714 28.36 144.814 28.36ZM163.643 28.36C162.363 28.36 161.313 28.16 160.493 27.76C159.673 27.34 159.063 26.79 158.663 26.11C158.263 25.43 158.063 24.68 158.063 23.86C158.063 22.48 158.603 21.36 159.683 20.5C160.763 19.64 162.383 19.21 164.543 19.21H168.323V18.85C168.323 17.83 168.033 17.08 167.453 16.6C166.873 16.12 166.153 15.88 165.293 15.88C164.513 15.88 163.833 16.07 163.253 16.45C162.673 16.81 162.313 17.35 162.173 18.07H158.423C158.523 16.99 158.883 16.05 159.503 15.25C160.143 14.45 160.963 13.84 161.963 13.42C162.963 12.98 164.083 12.76 165.323 12.76C167.443 12.76 169.113 13.29 170.333 14.35C171.553 15.41 172.163 16.91 172.163 18.85V28H168.893L168.533 25.6C168.093 26.4 167.473 27.06 166.673 27.58C165.893 28.1 164.883 28.36 163.643 28.36ZM164.513 25.36C165.613 25.36 166.463 25 167.063 24.28C167.683 23.56 168.073 22.67 168.233 21.61H164.963C163.943 21.61 163.213 21.8 162.773 22.18C162.333 22.54 162.113 22.99 162.113 23.53C162.113 24.11 162.333 24.56 162.773 24.88C163.213 25.2 163.793 25.36 164.513 25.36ZM186.117 28.36C184.597 28.36 183.257 28.03 182.097 27.37C180.937 26.71 180.017 25.79 179.337 24.61C178.677 23.43 178.347 22.08 178.347 20.56C178.347 19.04 178.677 17.69 179.337 16.51C180.017 15.33 180.937 14.41 182.097 13.75C183.257 13.09 184.597 12.76 186.117 12.76C188.017 12.76 189.617 13.26 190.917 14.26C192.217 15.24 193.047 16.6 193.407 18.34H189.357C189.157 17.62 188.757 17.06 188.157 16.66C187.577 16.24 186.887 16.03 186.087 16.03C185.027 16.03 184.127 16.43 183.387 17.23C182.647 18.03 182.277 19.14 182.277 20.56C182.277 21.98 182.647 23.09 183.387 23.89C184.127 24.69 185.027 25.09 186.087 25.09C186.887 25.09 187.577 24.89 188.157 24.49C188.757 24.09 189.157 23.52 189.357 22.78H193.407C193.047 24.46 192.217 25.81 190.917 26.83C189.617 27.85 188.017 28.36 186.117 28.36ZM199.815 28V6.4H203.655V15.4C204.155 14.58 204.825 13.94 205.665 13.48C206.525 13 207.505 12.76 208.605 12.76C210.445 12.76 211.865 13.34 212.865 14.5C213.885 15.66 214.395 17.36 214.395 19.6V28H210.585V19.96C210.585 18.68 210.325 17.7 209.805 17.02C209.305 16.34 208.505 16 207.405 16C206.325 16 205.425 16.38 204.705 17.14C204.005 17.9 203.655 18.96 203.655 20.32V28H199.815ZM228.297 28.36C226.797 28.36 225.467 28.04 224.307 27.4C223.147 26.76 222.237 25.86 221.577 24.7C220.917 23.54 220.587 22.2 220.587 20.68C220.587 19.14 220.907 17.77 221.547 16.57C222.207 15.37 223.107 14.44 224.247 13.78C225.407 13.1 226.767 12.76 228.327 12.76C229.787 12.76 231.077 13.08 232.197 13.72C233.317 14.36 234.187 15.24 234.807 16.36C235.447 17.46 235.767 18.69 235.767 20.05C235.767 20.27 235.757 20.5 235.737 20.74C235.737 20.98 235.727 21.23 235.707 21.49H224.397C224.477 22.65 224.877 23.56 225.597 24.22C226.337 24.88 227.227 25.21 228.267 25.21C229.047 25.21 229.697 25.04 230.217 24.7C230.757 24.34 231.157 23.88 231.417 23.32H235.317C235.037 24.26 234.567 25.12 233.907 25.9C233.267 26.66 232.467 27.26 231.507 27.7C230.567 28.14 229.497 28.36 228.297 28.36ZM228.327 15.88C227.387 15.88 226.557 16.15 225.837 16.69C225.117 17.21 224.657 18.01 224.457 19.09H231.867C231.807 18.11 231.447 17.33 230.787 16.75C230.127 16.17 229.307 15.88 228.327 15.88Z" fill="#FF5F00"/>
<path d="M15 15.5C7.99063 15.5 2.5 13.0294 2.5 9.875C2.5 6.72063 7.99063 4.25 15 4.25C22.0094 4.25 27.5 6.72063 27.5 9.875C27.5 13.0294 22.0094 15.5 15 15.5ZM15 5.5C9.67875 5.5 3.75 7.29688 3.75 9.875C3.75 12.4531 9.67875 14.25 15 14.25C20.3213 14.25 26.25 12.4531 26.25 9.875C26.25 7.29688 20.3213 5.5 15 5.5Z" fill="#FF5F00" stroke="#FF5F00"/>
<path d="M15 20.5C7.99063 20.5 2.5 18.0294 2.5 14.875V9.875C2.5 9.52938 2.77938 9.25 3.125 9.25C3.47063 9.25 3.75 9.52938 3.75 9.875V14.875C3.75 17.4531 9.67875 19.25 15 19.25C20.3213 19.25 26.25 17.4531 26.25 14.875V9.875C26.25 9.52938 26.5294 9.25 26.875 9.25C27.2206 9.25 27.5 9.52938 27.5 9.875V14.875C27.5 18.0294 22.0094 20.5 15 20.5Z" fill="#FF5F00" stroke="#FF5F00"/>
<path d="M15 26.125C7.99063 26.125 2.5 23.6544 2.5 20.5V14.875C2.5 14.5294 2.77938 14.25 3.125 14.25C3.47063 14.25 3.75 14.5294 3.75 14.875V20.5C3.75 23.0781 9.67875 24.875 15 24.875C20.3213 24.875 26.25 23.0781 26.25 20.5V14.875C26.25 14.5294 26.5294 14.25 26.875 14.25C27.2206 14.25 27.5 14.5294 27.5 14.875V20.5C27.5 23.6544 22.0094 26.125 15 26.125Z" fill="#FF5F00" stroke="#FF5F00"/>
<path d="M15 31.75C7.99063 31.75 2.5 29.2794 2.5 26.125V20.5C2.5 20.1544 2.77938 19.875 3.125 19.875C3.47063 19.875 3.75 20.1544 3.75 20.5V26.125C3.75 28.7031 9.67875 30.5 15 30.5C20.3213 30.5 26.25 28.7031 26.25 26.125V20.5C26.25 20.1544 26.5294 19.875 26.875 19.875C27.2206 19.875 27.5 20.1544 27.5 20.5V26.125C27.5 29.2794 22.0094 31.75 15 31.75Z" fill="#FF5F00" stroke="#FF5F00"/>
</svg>
